<?xml version="1.0" standalone="no"?>
<!DOCTYPE svg PUBLIC "-//W3C//DTD SVG 20010904//EN"
 "http://www.w3.org/TR/2001/REC-SVG-20010904/DTD/svg10.dtd">
<svg version="1.0" xmlns="http://www.w3.org/2000/svg"
 width="303.000000pt" height="166.000000pt" viewBox="0 0 303.000000 166.000000"
 preserveAspectRatio="xMidYMid meet">

<g transform="translate(0.000000,166.000000) scale(0.100000,-0.100000)"
fill="#000000" stroke="none">
<path d="M725 1396 c-141 -33 -240 -90 -336 -194 -265 -289 -174 -745 184
-922 304 -150 660 -46 891 261 l43 58 64 -81 c282 -359 752 -410 1042 -113
133 137 192 338 152 521 -46 211 -195 376 -407 452 -64 23 -89 26 -203 26
-117 0 -138 -3 -210 -28 -168 -58 -289 -155 -433 -346 -2 -3 -18 13 -35 35
-129 163 -270 269 -422 317 -80 25 -251 32 -330 14z m278 -215 c139 -48 269
-165 361 -324 l28 -47 -25 -43 c-96 -164 -226 -279 -369 -328 -90 -30 -229
-24 -313 15 -206 94 -298 314 -212 508 44 98 119 166 236 214 74 31 211 33
294 5z m1289 0 c110 -38 198 -116 246 -219 23 -49 27 -70 27 -152 0 -87 -3
-101 -32 -161 -41 -82 -111 -150 -201 -192 -63 -30 -73 -32 -182 -32 -106 0
-120 2 -180 30 -115 53 -239 170 -314 296 l-35 59 30 53 c94 159 232 278 374
323 63 20 202 17 267 -5z"/>
<path d="M690 808 l0 -58 185 0 185 0 0 58 0 57 -185 0 -185 0 0 -57z"/>
<path d="M2078 928 l-3 -63 -63 0 -62 0 0 -57 0 -58 65 0 65 0 0 -60 0 -60 55
0 55 0 0 60 0 60 65 0 65 0 0 58 0 57 -62 0 -63 0 -3 63 -3 62 -54 0 -54 0 -3
-62z"/>
<path d="M2730 1325 c0 -8 -7 -15 -15 -15 -8 0 -15 -7 -15 -15 0 -11 6 -10 25
7 13 11 22 25 19 30 -8 12 -14 10 -14 -7z"/>
</g>
</svg>
