<?xml version="1.0" standalone="no"?>
<!DOCTYPE svg PUBLIC "-//W3C//DTD SVG 20010904//EN"
 "http://www.w3.org/TR/2001/REC-SVG-20010904/DTD/svg10.dtd">
<svg version="1.0" xmlns="http://www.w3.org/2000/svg"
 width="256.000000pt" height="256.000000pt" viewBox="0 0 256.000000 256.000000"
 preserveAspectRatio="xMidYMid meet">

<g transform="translate(0.000000,256.000000) scale(0.100000,-0.100000)"
fill="#000000" stroke="none">
<path d="M1200 2323 c-31 -11 -81 -69 -91 -105 -11 -42 0 -98 26 -136 38 -53
143 -72 205 -36 93 55 92 207 -2 264 -32 19 -103 26 -138 13z"/>
<path d="M1329 1565 c-3 -2 -79 -5 -169 -6 -91 -1 -189 -4 -217 -7 l-53 -4 0
-48 0 -48 93 -4 c102 -5 145 -21 174 -65 16 -25 18 -68 21 -484 3 -501 1 -518
-53 -539 -15 -6 -67 -10 -116 -10 l-89 0 0 -55 0 -55 375 0 375 0 0 55 0 55
-99 0 c-91 0 -102 2 -128 24 l-28 24 -3 586 -2 586 -39 0 c-21 0 -40 -2 -42
-5z"/>
</g>
</svg>
