<?xml version="1.0" encoding="UTF-8"?> <svg xmlns="http://www.w3.org/2000/svg" viewBox="0 0 664.55 123.7"><path d="m428.14 78.12-.12.8c-1 .3-1.18 1.24-1.34 2a26.08 26.08 0 0 1 -1.8 5.26c-3.88 8.35-9.88 14.56-18.58 17.68a49 49 0 0 1 -26 1.67c-11.5-2.17-20-8.38-24.8-19.27-.23-.53-.42-1.15-1.22-1 0-1.8-.27-3.52-1.74-4.79-2.48-8.6-2.69-17.37-1.89-26.2a46.4 46.4 0 0 1 5.55-19c5.84-10.27 15-15.54 26.43-17a52.87 52.87 0 0 1 20 1c12.69 3.24 20.66 11.44 24.55 23.74 2.7 8.53 2.91 17.33 2.29 26.18-1 .52-.76 1.21-.26 1.94l-.07 1.2a8.22 8.22 0 0 0 -1 5.79zm-49.75-43.45a2.44 2.44 0 0 0 -1.69.22 17 17 0 0 0 -6.1 7.4 1 1 0 0 0 .18 1.09.22.22 0 0 1 -.06.21c-.23-.05-.64-.19-.67-.14-.79 1.53-1.6 3.07-1.14 4.9l-.13.79c-1.59 1.58-1.67 3.46-1.08 5.47v.8c-1.32 1.33-.72 2.82-.35 4.3v5.49c-.48.39-.47.77 0 1.16.27 2 .47 4 .82 6 1.07 6 3 11.7 7.68 15.9 11.45 10.22 29.86 5.1 34.58-9.78a52.08 52.08 0 0 0 -1.06-35.27c.29-1.55-1.61-4.47-3.26-5a1.54 1.54 0 0 0 -.49-1.59 19.09 19.09 0 0 0 -8.62-4.73c-3.88-.83-7.84-1.29-11.76-.36-1.27.3-3.15-.41-3.73 1.6v-.05c-.36 0-.72 0-.88.4l-2 1.05c-.16-.31-.2-.09-.24.14z" fill="#555"></path><path d="m445.56 103.23c0-.72-.09-1.43-.09-2.15q0-38.51 0-77c0-4.39 1-5.42 5.42-5.42 8.3 0 16.59-.09 24.89 0a42 42 0 0 1 16.43 3.11c7.94 3.46 12.27 10.37 12 19.1a1 1 0 0 0 0 1.54l-.09 2c-.6.09-.56.57-.7 1-.7 2.22-1.15 4.52-2.5 6.51a23.29 23.29 0 0 1 -10 8.76c-.67.29-1.54.44-1.57 1.51s.67 1.3 1.36 1.7a9.62 9.62 0 0 1 1.37 1.11c3.77 3.22 5.54 7.72 7.38 12.08 3.17 7.49 6 15.14 9 22.69.34.84.48 2 1.61 2.3a2.84 2.84 0 0 1 .49 2 6.25 6.25 0 0 1 -4.81 1.61c-1.94-.09-3.9-.06-5.84 0-5.62.12-5.35-.92-6.83-4.58-.52-1.28-.46-3-2.16-3.67v-.15c.36-1.37-1-5.23-2.06-6-.08-.06-.25 0-.38 0h.05c0-2.28-.35-4.43-2.39-5.89-.1-.73.69-1.84-.83-2 .07-1.44.46-3-1.49-3.63a3.74 3.74 0 0 1 -.82-1.75c-.24-3-4.1-7-7.67-7.61a56.41 56.41 0 0 0 -11.77-.83c-.69 0-1.35 0-1.29 1-.56.69-.31 1.5-.32 2.26q-.07 15.25-.1 30.49c-1.91 2.26-4.41 2.65-7.17 2.37a12.12 12.12 0 0 0 -2.35 0c-2.61.14-5.01-.22-6.77-2.46zm38.67-67.41a1.42 1.42 0 0 0 -.57-1.35 10.36 10.36 0 0 0 -4.93-2.19c-5.24-.9-10.54-.24-15.81-.42-.61 0-1 .21-1 .9 0 7.3.06 14.6 0 21.9 0 1.29.25 1.88 1.69 1.85 3.84-.08 7.69 0 11.54 0a11.18 11.18 0 0 0 7.53-2.77c4.66-4.08 5.75-9.58 3.13-16 .63-.47.14-.88-.1-1.25s-.51-.18-.71.12z" fill="#555"></path><path d="m195.32 83.63a26.84 26.84 0 0 1 -.52-5.63q0-27.54 0-55.07c0-2.77.92-3.92 3.69-4.27a33.07 33.07 0 0 1 9 0c3 .45 3.86 1.58 3.85 4.35-.08 17.57.11 35.15-.1 52.72-.14 11.6 9 16.83 16.45 17.45 6.15.51 11.84-.49 16.67-4.63a14.74 14.74 0 0 0 5.35-11.7q0-26.85 0-53.7c0-3 1-4.15 3.93-4.51a36.29 36.29 0 0 1 8.6 0c3 .35 4 1.52 4 4.49q0 28-.07 56.05a38.24 38.24 0 0 1 -.43 4.08 13.43 13.43 0 0 0 -1.79 6.14l.08.1c-.93 0-1.14.79-1.41 1.43-1.68 3.91-4.68 6.74-7.93 9.23-5.81 4.44-12.77 5.68-19.82 6.17a57 57 0 0 1 -15.19-.75c-7.82-1.56-14.62-4.83-19.51-11.5-1-1.37-1.23-3.33-3-4.16v-.15c-.17-2.22-.34-4.38-1.85-6.14z" fill="#545454"></path><path d="m533.61 90.28-.51 1.63c-1.49.14-1.21 1.36-1.41 2.3-1.1 1.73-1.3 3.77-1.92 5.66-2 6-1.76 5.83-8 5.7-3-.06-6.13.76-8.72-1.54.81-4.24 2.57-8.18 4-12.22 8-23.2 16.18-46.38 24.2-69.59a4.83 4.83 0 0 1 4.65-3.67 56.63 56.63 0 0 1 10.75.06 4.45 4.45 0 0 1 4.11 3.28q13.76 39.7 27.61 79.37c.42 1.2 1.07 2.42.37 3.75-.37-.71-.82-.5-1.23-.07a2.1 2.1 0 0 1 -1.77.65c-4.36-.29-8.85.85-13.06-1.17l-.58-1.94c.49-.31.42-.71.26-1.18-1.53-4.58-3-9.17-4.58-13.75-.18-.54-.38-1.14-1.12-1.16h-31.44c-1.8.79-2.63 2.82-1.61 3.89zm17.23-52.34c-.69 2.54-1.18 5.09-2 7.57-3 8.62-5.88 17.27-8.88 25.88-.5 1.43-.25 1.78 1.25 1.76 6.4-.06 12.81 0 19.22 0 1.23 0 1.61-.21 1.13-1.53q-1.71-4.68-3.16-9.44c-2.5-8.08-5.85-15.88-7.56-24.24z" fill="#555"></path><path d="m594 20.45.1-.36c1.32 0 2.44-.84 3.8-.81 3.2.07 6.4 0 9.6 0a4.13 4.13 0 0 1 3.6 1.65c2.35 3.43 4.6 6.94 6.83 10.46q4.54 7.16 9 14.38c.86 1.41 1.58 1.07 2.34 0s1.44-2 2.12-3c4.79-7.27 9.61-14.5 14.43-21.77a3.71 3.71 0 0 1 3.46-1.7h9.6a2.82 2.82 0 0 1 2.72 1.21c.52.94-.37 1.71-.83 2.43-1.81 2.86-3.7 5.66-5.53 8.5-2.22 3.44-4.4 6.92-6.64 10.34-3.63 5.54-7.3 11.06-10.92 16.6-.32.49-.86 1.11-.08 1.71l-.14.79c-1.09.33-.38 1-.14 1.34q5.88 9.16 11.82 18.28c4.69 7.24 9.47 14.42 13.88 21.83a3 3 0 0 0 1.36 1.34l.13.09v.16c-1.67 1.51-3.66 1.78-5.82 1.68-2.41-.1-4.83-.06-7.25 0a5.17 5.17 0 0 1 -4.62-2.48c-2.69-4.14-5.24-8.37-8-12.47-3.34-5-6.4-10.09-9.61-15.13-1-1.52-1.76-1.55-2.77-.05-2 2.9-3.89 5.85-5.8 8.8-4.08 6.28-8.1 12.58-12.22 18.83a5.14 5.14 0 0 1 -4.95 2.53c-2.8-.18-5.62-.05-8.42 0a6.29 6.29 0 0 1 -2.11-.32c-1.29-.44-1.85-.93-.9-2.36 3.36-5 6.6-10.11 9.88-15.18 2.37-3.66 4.7-7.33 7.08-11 3.19-4.9 6.42-9.78 9.6-14.68a3 3 0 0 0 0-3.43c-3-4.73-6.09-9.34-9-14.07-4.28-6.83-8.91-13.44-12.89-20.45a3.24 3.24 0 0 0 -2.42-2l-.19-.83c.38-.31.3-.61-.1-.86z" fill="#555"></path><path d="m3.08 23.93c-1.58-.46-3.18-.93-3.08-3.06 1.15.23 1.65-.88 2.55-1.24 5.45-2.14 10.8-4.39 16.19-6.63.65.64 1 .44 1.18-.39 5-2.4 10.13-4.33 15.29-6.28.62.59.71.1.78-.39.28-.46.75-.38 1.18-.39.62.59.71.1.78-.39 2.17-1 4.36-2 6.51-3 3.6-1.76 7.13-1.48 10.73.06 8.47 3.64 17 7.16 25.46 10.8 6 2.59 12.15 4.92 18 7.85.09 1.65-1.09 2.39-2.32 2.91-4.1 1.75-8.15 3.63-12.39 5-.29-.09-.46 0-.51.31l-.29 1.4q-.44 9.16 0 18.33l-.09.63a.66.66 0 0 0 -.26 1l-.16 1c-.41.08-.44.38-.43.71-2 5.29-6.75 7.57-11.22 10-9.98 5.44-20.74 6.1-31.68 4.35a41.3 41.3 0 0 1 -20.3-9.85 6.59 6.59 0 0 1 -1.9-2.61c-.07-.83 0-1.7-.9-2.2a1 1 0 0 1 -.25-1.15c.88-1 0-2.09 0-3.13.11-5.55.06-11.1 0-16.65 0-.66.34-1.5-.64-1.84l-.92-.53c-.24-.82-.87-.57-1.43-.53l-.92-.42c-.2-.44-.58-.44-1-.38a45.14 45.14 0 0 1 -7.25-3c-.08-.49-.27-.76-.71-.29zm65.86 30.28c.57 0 1.14 0 1.18-.78.82-.8 1.6-1.64 2.46-2.4a4.91 4.91 0 0 0 1.26-6.23 92.57 92.57 0 0 1 -.06-10.64c0-.17.18-.41.11-.49-.21-.28-.44-.16-.61.09-.41.2-.81.41-1.23.58-5.56 2.32-11 4.85-16.56 7.27-3.44 1.51-6.22 1.7-9.29-.17-.19-.58-.61-.57-1.09-.42-6.94-2.5-13.72-5.39-20.49-8.29-1.61-.77-1.14.63-1.14 1.22-.05 4.14 0 8.28 0 12.42-.82.08-.8.67-.75 1.26s.62.68 1.13.7v1.57c-.62 1 0 1.33.78 1.57a4 4 0 0 1 1.55 1.53c0 .79.61.79 1.18.78 2.35 1.67 5.24 2.4 7.45 4.31.36 1 1.05 1.16 2 .78l2 .4c.08.5.17 1 .79.39h.78c.08.5.17 1 .79.39.71 0 1.42.17 2.11.21 3.48.2 7 .55 10.44-.19.1.2.17.54.31.57.42.09.42-.29.48-.58h1.48c.62.6.71.11.79-.39l6.67-2.36c2.44.09 4.03-1.39 5.48-3.1zm-27.45-22c.08.5.16 1 .78.39a4.5 4.5 0 0 1 2.35.79 2.08 2.08 0 0 0 2.75 1.17h.78c1 1.08 1.73 1.09 2.75 0l6.27-2a3.11 3.11 0 0 0 3.53-1.57 2.27 2.27 0 0 1 2-.78c.62.59.71.11.78-.39l1.18-.39c1 .62 1.33 0 1.57-.78.28-.46.75-.38 1.18-.39.62.59.71.11.78-.39 1.11-.52 2.21-1.06 3.33-1.56 2.91-1.31 5.83-2.58 8.74-3.9.65-.3 1.34-.72 1.16-1.6s-.75-.81-1.4-.6c-.73-.25-1.49-.44-2.19-.75q-13.47-6-26.93-12.08a2.4 2.4 0 0 0 -2.06-.1q-7.28 3.1-14.58 6.15-8 3.35-16 6.67c-.74-.11-1.42-.08-1.79.72-1.2.32-.84 1-.21 1.46s1.38 1.81 2.18.13c4.63 2 9.33 3.78 13.88 5.91 2.95 1.46 6.3 2.12 9.17 3.92z" fill="#545454"></path><path d="m181.1 32.61h-21.18c-1.51 0-.73 1.15-.73 1.65q-.08 33.53 0 67.05c0 2.95-1.29 4.23-4.29 4.24-2.29 0-4.57 0-6.86 0-3.36 0-4.54-1.22-4.54-4.64q0-33.23 0-66.47a9.48 9.48 0 0 0 -.08-1.75c-.09-.45-.42-.39-.7-.09h-22l-.5-.32h-.22l-.13-.07-.43-.38a3.25 3.25 0 0 1 -1.12-2.61c-.06-2.41-.14-4.84 0-7.24s1.22-3.33 3.67-3.33q29.19 0 58.38 0c2 0 3.3.83 3.57 2.82a24.78 24.78 0 0 1 -.13 8.75c-.19.85-.38 2-1.73 1.83-.53-.27-.89-.1-.98.56z" fill="#555"></path><path d="m301.1 32.63h-21.18c-.1-1-1-.66-1.54-.83a.67.67 0 0 0 -.93-.62c0-2.23-.49-4.44-.34-6.69 0-.67.25-1.42-.32-2 .18-2.92 1-3.8 3.75-3.81q29.06 0 58.11 0c2 0 3.37.6 3.7 2.65a24.31 24.31 0 0 1 -.08 8.93c-.18.85-.37 2-1.73 1.82-.59-.25-1-.09-1 .57h-21.18c-1.5 0-.73 1.14-.73 1.65q-.08 33.69 0 67.38a3.55 3.55 0 0 1 -3.82 3.91q-3.82.06-7.64 0c-2.95 0-4.24-1.38-4.24-4.31q0-33.39 0-66.79a9.47 9.47 0 0 0 -.08-1.75c-.13-.46-.47-.41-.75-.11z" fill="#555"></path><path d="m25.68 100.54a.42.42 0 0 1 .19.25c-.17.71.36 1.07.76 1.47a58.11 58.11 0 0 0 7.05 6.42c8 5.68 16.41 6.88 25.4 2.94 2.7-1.18 5.41-2.54 7.19-5.1l.07-.07a8.43 8.43 0 0 0 4.51-4.45l.91-1.06a3.58 3.58 0 0 0 2.24-2.88.46.46 0 0 1 .19-.27 2 2 0 0 0 1.4-2.07.47.47 0 0 1 .19-.28.67.67 0 0 0 .59-.9.49.49 0 0 1 .17-.28 2.85 2.85 0 0 0 1.41-2.45.46.46 0 0 1 .14-.3 1.45 1.45 0 0 0 1-1.72l.27-.61a7.38 7.38 0 0 0 2.13-4.43l1-1.85a3.82 3.82 0 0 1 2.84-.9c1.82.09 3.65 0 5.48 0 .61 0 1.34.26 1.73-.52a3.17 3.17 0 0 1 .05 3.15c-4.58 12.25-11.16 23.14-21.7 31.23-14.57 11.19-32.9 10.29-46.55-2.08-9.16-8.3-15.22-18.54-19.42-30a.71.71 0 0 0 -.3-1c-.41-.63-.71-1.21.45-1.27.38.79 1.11.52 1.72.53 2 0 4 .09 6 0a3 3 0 0 1 3 1.32l.44.94c-.2.49-.09.85.45 1l.25.64a6.85 6.85 0 0 0 2.07 4.4l.57 1.05a.68.68 0 0 0 .53.93l.33.57a4.33 4.33 0 0 0 2.07 3.34.47.47 0 0 1 .19.27.67.67 0 0 0 .61.9.48.48 0 0 1 .17.28 1.09 1.09 0 0 0 1 1.29.44.44 0 0 1 .18.27 1.06 1.06 0 0 0 1.03 1.3z" fill="#565656"></path><path d="m24.12 85.21a1.1 1.1 0 0 1 -.48-1.06c.95-.79.59-1.19-.42-1.39-.42-.89-.17-1.38.86-1.38h8.23a1.63 1.63 0 0 1 1.41.86c1.67 2.25 3.27 4.57 5.1 6.68 2.61 3 5.59 5.52 9.94 5.47 3.32 0 5.8-1.79 8.08-3.91 2.51-2.33 4.25-5.28 6.31-8a2.49 2.49 0 0 1 2.27-1.15c2.48.07 5 0 7.45 0 1.42 0 2 .61.92 1.91l-.26-.18.19.26-.24.66c-1.56.66-2.18 1.94-1.58 3.26a1.34 1.34 0 0 1 -.58 1 1.4 1.4 0 0 0 -1.62.8 18.17 18.17 0 0 1 -2.8 4c-4 5-8.7 9.09-15.36 10.21-7.62 1.29-13.53-2-18.62-7.1a30.39 30.39 0 0 1 -6.07-7.8c-.21-.42-.54-1.29-1.22-.32a3.7 3.7 0 0 1 -1.07-2c.22-.41.44-.9-.44-.82z" fill="#828282"></path><path d="m594.22 22.1a3.24 3.24 0 0 1 2.42 2c4 7 8.62 13.62 12.89 20.45 3 4.73 6.1 9.34 9 14.07a3 3 0 0 1 0 3.43c-3.19 4.9-6.41 9.78-9.6 14.68-2.38 3.65-4.71 7.33-7.08 11-3.28 5.07-6.53 10.16-9.88 15.18-1 1.43-.39 1.92.9 2.36a6.29 6.29 0 0 0 2.11.32c2.81 0 5.63-.14 8.42 0a5.14 5.14 0 0 0 4.95-2.53c4.11-6.25 8.14-12.56 12.22-18.83 1.91-2.95 3.83-5.89 5.8-8.8 1-1.5 1.8-1.47 2.77.05 3.21 5 6.27 10.18 9.61 15.13 2.77 4.1 5.32 8.33 8 12.47a5.17 5.17 0 0 0 4.62 2.48c2.42 0 4.84-.09 7.25 0 2.16.09 4.15-.18 5.82-1.68.28 1.26-.48 1.87-1.51 2.1a30.82 30.82 0 0 1 -14.13 0 4.67 4.67 0 0 1 -2.73-2.37q-8.38-13.1-16.81-26.17l-1.37-2.1c-.73.05-.82.66-1.08 1.06-5.83 8.89-11.7 17.76-17.42 26.72a6.71 6.71 0 0 1 -5.71 3.47 50.63 50.63 0 0 1 -9.19-.14c-4.15-.58-4.69-1.79-2.36-5.36q7.32-11.23 14.68-22.44c3.64-5.57 7.24-11.17 10.93-16.7a2.14 2.14 0 0 0 0-2.76q-11.56-17.92-23-35.89a7.83 7.83 0 0 1 -.52-1.2z" fill="#4c4c4c"></path><path d="m637.59 60.09c-.78-.61-.24-1.22.08-1.71 3.62-5.55 7.3-11.06 10.92-16.6 2.24-3.43 4.42-6.9 6.64-10.34 1.84-2.84 3.72-5.65 5.53-8.5.46-.73 1.35-1.5.83-2.43a2.82 2.82 0 0 0 -2.72-1.21c-3.2 0-6.4 0-9.6 0a3.71 3.71 0 0 0 -3.46 1.7c-4.78 7.27-9.64 14.5-14.48 21.74-.69 1-1.4 2-2.12 3s-1.48 1.41-2.34 0q-4.43-7.22-9-14.38c-2.23-3.52-4.47-7-6.83-10.46a4.13 4.13 0 0 0 -3.6-1.65c-3.2 0-6.4.05-9.6 0-1.36 0-2.47.83-3.8.81.52-1.12 1.65-1.27 2.63-1.39a45.45 45.45 0 0 1 11.33-.03 5.78 5.78 0 0 1 4.43 2.85c4.84 7.74 9.79 15.42 14.62 23.17.9 1.45 1.25 1.33 2.12 0 5.05-7.77 10.24-15.45 15.27-23.23a5.76 5.76 0 0 1 4.78-2.88 50.47 50.47 0 0 1 10.36.14c3.22.44 3.9 1.78 2.15 4.47q-12 18.49-24.14 36.93z" fill="#4c4c4c"></path><path d="m142.67 32.63c.28-.3.61-.36.7.09a9.48 9.48 0 0 1 .08 1.75q0 33.23 0 66.47c0 3.42 1.18 4.63 4.54 4.64h6.86c3 0 4.29-1.29 4.29-4.24q0-33.53 0-67.05c0-.51-.77-1.69.73-1.65-.62.74-.31 1.63-.31 2.44q0 33.4 0 66.8c0 3.14-.72 4.08-3.81 4.57a27.82 27.82 0 0 1 -9.16 0c-2.87-.49-3.62-1.46-3.62-4.34q0-33.6 0-67.2c.03-.78.32-1.6-.3-2.28z" fill="#454545"></path><path d="m301.1 32.63c.28-.3.61-.36.7.09a9.47 9.47 0 0 1 .08 1.75q0 33.39 0 66.79c0 2.93 1.29 4.26 4.24 4.31q3.82.06 7.64 0a3.55 3.55 0 0 0 3.82-3.91q0-33.69 0-67.38c0-.51-.76-1.69.73-1.65-.61.67-.31 1.5-.31 2.24q0 33.5 0 67c0 3.14-.72 4.08-3.81 4.57a27.83 27.83 0 0 1 -9.16 0c-2.87-.49-3.62-1.46-3.62-4.34q0-33.6 0-67.2c0-.77.3-1.59-.31-2.27z" fill="#454545"></path><path d="m37.17 5.58c-.43 0-.89-.07-1.18.39a.81.81 0 0 0 -.78.39c-5.16 1.94-10.32 3.87-15.29 6.28l-1.18.36c-5.39 2.24-10.74 4.49-16.19 6.64-.89.36-1.4 1.46-2.55 1.23 0-1.09.79-1.59 1.66-1.95q17.28-7.07 34.55-14.14c2.59-1.06 5.21-2.09 7.7-3.35a13 13 0 0 1 11.65-.1c9.85 4.26 19.74 8.45 29.63 12.67 3.77 1.6 7.58 3.13 11.35 4.73 1 .42 2.15.73 2.14 2.17-5.87-2.93-12-5.26-18-7.85-8.47-3.64-17-7.16-25.46-10.8-3.63-1.57-7.16-1.85-10.75-.11-2.16 1-4.34 2-6.51 3a.81.81 0 0 0 -.79.44z" fill="#585858"></path><path d="m96.32 38.05v6.66s-.83 3.16-2.36 3.14-2.46-1.05-2.47-3.05c0-4.51 0-9 0-13.52 0-1.74.83-2.66 2.37-2.69a2.29 2.29 0 0 1 2.5 2.61c-.06 2.28-.04 4.57-.04 6.85z" fill="#585858"></path><path d="m354.3 85.27c.8-.16 1 .46 1.22 1 4.8 10.89 13.3 17.09 24.8 19.27a49 49 0 0 0 26-1.67c8.71-3.13 14.73-9.34 18.58-17.68a26.08 26.08 0 0 0 1.8-5.26c.17-.76.36-1.7 1.34-2-4.13 17.68-17.19 28-35.61 28.35-7.93.13-15.64-.65-22.77-4.44a32.1 32.1 0 0 1 -15.36-17.57z" fill="#454545"></path><path d="m197.16 89.89c1.75.83 2 2.79 3 4.16 4.89 6.67 11.69 9.94 19.51 11.5a57 57 0 0 0 15.19.75c7-.49 14-1.73 19.82-6.17 3.25-2.49 6.25-5.32 7.93-9.23.27-.64.48-1.41 1.41-1.43a23 23 0 0 1 -12.91 13.7c-14 5.92-28.15 5.94-42-.42a22.43 22.43 0 0 1 -11.95-12.86z" fill="#454545"></path><path d="m25.65 88.11c.68-1 1-.11 1.22.32a30.39 30.39 0 0 0 6.07 7.8c5.1 5.14 11 8.39 18.62 7.1 6.66-1.13 11.34-5.17 15.36-10.21a18.17 18.17 0 0 0 2.8-4 1.4 1.4 0 0 1 1.62-.8c-3 5.07-6.57 9.68-11.54 13-7.61 5-16.92 4.49-24.24-1.26a37.7 37.7 0 0 1 -9.91-11.95z" fill="#6f6f6f"></path><path d="m510.06 102c-1.13-.34-1.28-1.45-1.61-2.3-3-7.56-5.81-15.2-9-22.69-1.84-4.35-3.61-8.86-7.38-12.08a9.62 9.62 0 0 0 -1.38-1.06c-.69-.4-1.38-.7-1.36-1.7s.9-1.22 1.57-1.51a23.29 23.29 0 0 0 10-8.76c1.35-2 1.8-4.29 2.5-6.51.14-.44.11-.92.7-1-.93 8-3.92 11.74-14.45 18 6 3.44 8.37 9.41 10.73 15.35q4.85 12.16 9.68 24.26z" fill="#454545"></path><path d="m664.37 103.67a3 3 0 0 1 -1.36-1.34c-4.42-7.41-9.2-14.59-13.88-21.83q-5.92-9.14-11.82-18.28c-.24-.37-1-1 .14-1.34l26.09 40.62a4.58 4.58 0 0 1 .83 2.17z" fill="#4c4c4c"></path><path d="m66.27 106.52c-1.78 2.56-4.49 3.92-7.19 5.1-9 3.94-17.44 2.75-25.4-2.94a58.11 58.11 0 0 1 -7.05-6.42c-.4-.4-.93-.77-.76-1.47 1.35.73 2.19 2 3.23 3.07 4.51 4.56 9.7 7.85 16.14 9 6.76 1.14 12.76-.86 18.28-4.61.9-.61 1.56-1.59 2.75-1.73z" fill="#8d8d8d"></path><path d="m513 104c2.59 2.31 5.75 1.48 8.72 1.54 6.27.13 6.07.28 8-5.7.62-1.89.82-3.93 1.92-5.66l.62.05c-1 3.09-2.06 6.17-3 9.27a3.9 3.9 0 0 1 -3.49 3 33 33 0 0 1 -10.32-.19c-1.15-.24-2.52-.58-2.45-2.31z" fill="#454545"></path><path d="m490.89 97.34c1.7.63 1.64 2.39 2.16 3.67 1.48 3.65 1.21 4.7 6.83 4.58 1.95 0 3.9-.08 5.84 0a6.25 6.25 0 0 0 4.81-1.61c.34 1.32-.6 1.83-1.53 2a29 29 0 0 1 -13.33 0 2.94 2.94 0 0 1 -2.15-1.83c-.88-2.21-1.75-4.51-2.63-6.81z" fill="#454545"></path><path d="m535.22 86.36h31.37v.72h-31.37z" fill="#393939"></path><path d="m462.29 70.48c-.05-1 .6-1 1.29-1a56.41 56.41 0 0 1 11.77.83c3.57.65 7.44 4.6 7.67 7.61l-1.62-2.39c-2.29-3.37-5.65-4.68-9.54-4.86-3.18-.12-6.37-.13-9.57-.19z" fill="#454545"></path><path d="m445.56 103.23c1.77 2.23 4.17 2.6 6.8 2.36a12.12 12.12 0 0 1 2.35 0c2.75.29 5.26-.11 7.17-2.37.11 2-1.35 2.76-2.9 3.07a26 26 0 0 1 -10.47 0c-1.56-.29-2.98-1.07-2.95-3.06z" fill="#4c4c4c"></path><path d="m572.62 104.41c4.21 2 8.7.88 13.06 1.17a2.1 2.1 0 0 0 1.77-.65c.41-.43.86-.65 1.23.07-.6 1.14-1.71 1.32-2.81 1.46a34.87 34.87 0 0 1 -10.13-.07c-1.28-.2-2.59-.52-3.12-1.98z" fill="#4c4c4c"></path><path d="m15.35 29.07c1 .35.63 1.19.64 1.84 0 5.55.07 11.1 0 16.65 0 1 .88 2.1 0 3.13a11.51 11.51 0 0 1 -.56-4.21c-.03-5.8-.06-11.61-.08-17.41z" fill="#585858"></path><path d="m566.61 87.08v-.72c.75 0 .94.62 1.12 1.16 1.54 4.58 3 9.17 4.58 13.75.16.47.23.88-.26 1.18q-2.51-7.25-5-14.51a9.41 9.41 0 0 0 -.44-.86z" fill="#4c4c4c"></path><path d="m83.17 48.86q-.44-9.16 0-18.33c.43.32.38.8.38 1.25q0 7.91 0 15.83c.01.45.05.92-.38 1.25z" fill="#828282"></path><path d="m15.7 83.31a3 3 0 0 0 -3-1.32c-2 .11-4 0-6 0-.6 0-1.33.26-1.72-.53a79.38 79.38 0 0 1 9.49-.14c1.26.01 1.29 1.04 1.23 1.99z" fill="#8d8d8d"></path><path d="m92.47 81.49c-.39.78-1.13.51-1.73.52-1.83 0-3.66.08-5.48 0a3.82 3.82 0 0 0 -2.84.9c.12-.8.29-1.6 1.33-1.58 2.91.06 5.82-.25 8.72.16z" fill="#8d8d8d"></path><path d="m276.83 22.46c.57.6.37 1.35.32 2-.15 2.25.3 4.45.34 6.69-1.39-2.8-.62-5.78-.66-8.69z" fill="#454545"></path><path d="m488.41 91.17c.13 0 .3-.07.38 0 1.11.8 2.42 4.66 2.06 6a40.8 40.8 0 0 1 -2.44-6z" fill="#454545"></path><path d="m486.07 85.28c2 1.46 2.37 3.62 2.39 5.89a35.73 35.73 0 0 1 -2.39-5.89z" fill="#454545"></path><path d="m70.85 102a8.43 8.43 0 0 1 -4.51 4.47 20.05 20.05 0 0 1 4.51-4.47z" fill="#8d8d8d"></path><path d="m195.32 83.63c1.52 1.77 1.72 3.92 1.83 6.11a17.89 17.89 0 0 1 -1.83-6.11z" fill="#454545"></path><path d="m428.14 78.12a8.22 8.22 0 0 1 1.1-5.86 26.5 26.5 0 0 1 -1.1 5.86z" fill="#454545"></path><path d="m263.91 89.37a13.43 13.43 0 0 1 1.79-6.14 16.56 16.56 0 0 1 -1.79 6.14z" fill="#454545"></path><path d="m535.22 86.36v.64c-1.23.74-.92 2.24-1.62 3.25-1.01-1.04-.18-3.07 1.62-3.89z" fill="#4c4c4c"></path><path d="m352.61 80.49c1.47 1.27 1.71 3 1.74 4.79a18.58 18.58 0 0 1 -1.74-4.79z" fill="#454545"></path><path d="m81.45 84.75a7.38 7.38 0 0 1 -2.13 4.43 10.81 10.81 0 0 1 2.13-4.43z" fill="#8d8d8d"></path><path d="m19 90.34a6.85 6.85 0 0 1 -2.16-4.45 11.61 11.61 0 0 1 2.16 4.45z" fill="#8d8d8d"></path><path d="m483.85 79.7c1.95.61 1.56 2.19 1.49 3.63a13.81 13.81 0 0 1 -1.49-3.63z" fill="#454545"></path><path d="m71.91 87.3c-.6-1.32 0-2.6 1.58-3.26a8.1 8.1 0 0 1 -1.58 3.26z" fill="#6f6f6f"></path><path d="m22.51 96.23a4.33 4.33 0 0 1 -2.07-3.34 6.89 6.89 0 0 1 2.07 3.34z" fill="#8d8d8d"></path><path d="m74 98.06a3.58 3.58 0 0 1 -2.22 2.86 5.48 5.48 0 0 1 2.22-2.86z" fill="#8d8d8d"></path><path d="m532.31 94.26-.62-.05c.2-.93-.08-2.16 1.41-2.3z" fill="#4c4c4c"></path><path d="m77.93 91.81a2.85 2.85 0 0 1 -1.41 2.45 3.23 3.23 0 0 1 1.41-2.45z" fill="#8d8d8d"></path><path d="m75.57 95.73a2 2 0 0 1 -1.4 2.07 2.66 2.66 0 0 1 1.4-2.07z" fill="#8d8d8d"></path><path d="m429.32 71.06c-.5-.72-.75-1.41.26-1.94z" fill="#454545"></path><path d="m16.2 51.85c.86.51.84 1.37.9 2.2a3.06 3.06 0 0 1 -.9-2.2z" fill="#585858"></path><path d="m485.29 83.31c1.52.13.74 1.24.83 2a4.48 4.48 0 0 1 -.83-2z" fill="#454545"></path><path d="m504.21 42.43a1 1 0 0 1 0-1.54q0 .77 0 1.54z" fill="#454545"></path><path d="m79 89.79a1.45 1.45 0 0 1 -1 1.72 2 2 0 0 1 1-1.72z" fill="#8d8d8d"></path><path d="m24.48 99a1.09 1.09 0 0 1 -1-1.29 1.23 1.23 0 0 1 1 1.29z" fill="#8d8d8d"></path><path d="m25.68 100.54a1.06 1.06 0 0 1 -1-1.29 1.27 1.27 0 0 1 1 1.29z" fill="#8d8d8d"></path><path d="m278.38 31.77c.57.17 1.44-.21 1.54.83a1.68 1.68 0 0 1 -1.56-.4z" fill="#393939"></path><path d="m23.23 82.76c1 .2 1.36.6.42 1.39-.21-.44-.6-.83-.42-1.39z" fill="#6f6f6f"></path><path d="m13 28c.56 0 1.19-.29 1.43.53-.5-.11-1.05-.08-1.43-.53z" fill="#585858"></path><path d="m278.38 31.77v.44c-.6-.1-.7-.62-.9-1.06a.67.67 0 0 1 .9.62z" fill="#454545"></path><path d="m594 20.45c.42.25.5.52 0 .82a.59.59 0 0 1 0-.82z" fill="#4c4c4c"></path><path d="m20.11 92.32a.68.68 0 0 1 -.53-.93.71.71 0 0 1 .53.93z" fill="#8d8d8d"></path><path d="m76.34 94.54a.67.67 0 0 1 -.59.9.72.72 0 0 1 .59-.9z" fill="#8d8d8d"></path><path d="m23.31 97.4a.67.67 0 0 1 -.61-.9.74.74 0 0 1 .61.9z" fill="#8d8d8d"></path><path d="m82.82 50.46a.66.66 0 0 1 .26-1c.31.46.02.73-.26 1z" fill="#828282"></path><path d="m82.24 52.17c0-.33 0-.64.43-.71.43.54-.18.54-.43.71z" fill="#828282"></path><path d="m11.09 27.21c.4-.06.78-.07 1 .38a.87.87 0 0 1 -1-.38z" fill="#585858"></path><path d="m3.08 23.93c.44-.47.63-.2.76.25z" fill="#585858"></path><path d="m4.55 82.75a.71.71 0 0 1 .3 1 .79.79 0 0 1 -.3-1z" fill="#8d8d8d"></path><path d="m339.54 32.61c.09-.66.45-.83 1-.57a.79.79 0 0 1 -1 .57z" fill="#454545"></path><path d="m16.59 85.25c-.55-.16-.65-.51-.45-1a.88.88 0 0 1 .45 1z" fill="#8d8d8d"></path><path d="m181.1 32.61c.09-.66.45-.83 1-.57a.79.79 0 0 1 -1 .57z" fill="#454545"></path><path d="m24.12 85.21c.86-.08.66.4.46.88z" fill="#6f6f6f"></path><path d="m120.19 32.28.5.32z" fill="#393939"></path><path d="m83.46 29.13c0-.31.22-.4.51-.31z" fill="#828282"></path><path d="m119.48 31.83.43.38c-.27.03-.38-.14-.43-.38z" fill="#393939"></path><path d="m406.14 38.22c-7.07-7.12-15.54-7.53-24.59-5.09.59-2 2.46-1.3 3.73-1.6 3.92-.93 7.87-.46 11.76.36a19.09 19.09 0 0 1 8.61 4.74 1.54 1.54 0 0 1 .49 1.59z" fill="#393939"></path><path d="m378.43 34.65a23.45 23.45 0 0 0 -7.61 8.71 1 1 0 0 1 -.18-1.09 17 17 0 0 1 6.1-7.4 2.44 2.44 0 0 1 1.69-.22z" fill="#4c4c4c"></path><path d="m409.37 43.21-3.26-5c1.65.53 3.54 3.45 3.26 5z" fill="#393939"></path><path d="m368.82 49.11-1.08 5.47c-.59-2.01-.51-3.89 1.08-5.47z" fill="#4c4c4c"></path><path d="m370.76 43.57-1.76 4.76c-.46-1.82.35-3.36 1.14-4.9-.02-.05.39.09.62.14z" fill="#4c4c4c"></path><path d="m367.69 55.39-.35 4.3c-.34-1.48-.97-2.97.35-4.3z" fill="#4c4c4c"></path><path d="m367.35 65.2v1.16c-.47-.36-.48-.78 0-1.16z" fill="#4c4c4c"></path><path d="m381.57 33.07a1 1 0 0 1 -.88.4c.16-.47.52-.41.88-.4z" fill="#393939"></path><path d="m378.73 34.52a.52.52 0 0 1 -.34.14c.04-.22.08-.44.34-.14z" fill="#393939"></path><path d="m484.23 35.82a13.68 13.68 0 0 0 -9.23-3.16c-4.37 0-8.73.07-13.1.11 0-.68.38-.92 1-.9 5.27.17 10.57-.48 15.81.42a10.36 10.36 0 0 1 4.93 2.19 1.42 1.42 0 0 1 .59 1.34z" fill="#393939"></path><path d="m485.81 37.73-.81-1.12c.2-.3.47-.47.71-.12s.73.78.1 1.24z" fill="#393939"></path><path d="m24.62 32.72c-.16.28-.45.55-.45.83 0 4.57-.27 9.14.13 13.7a6.14 6.14 0 0 0 2 4.09 29.79 29.79 0 0 0 15.22 7.66c10.46 2 19.88-.43 28.38-6.9a10.26 10.26 0 0 0 3.93-7.3 4.91 4.91 0 0 1 -1.26 6.2c-.85.76-1.64 1.6-2.46 2.4a1.19 1.19 0 0 0 -1.18.78 24.54 24.54 0 0 0 -5.49 3.14l-6.66 2.38a.8.8 0 0 0 -.79.39h-2.35c-3.46.74-7 .39-10.44.19-.69 0-1.4-.19-2.11-.21a.8.8 0 0 0 -.79-.39h-.78a.8.8 0 0 0 -.79-.39l-2-.4a3.87 3.87 0 0 0 -2-.78c-2.21-1.92-5.1-2.64-7.45-4.31a1.19 1.19 0 0 0 -1.09-.8 4 4 0 0 0 -1.57-1.57 2.15 2.15 0 0 0 -.78-1.57q0-.78 0-1.57l-.38-2c0-4.14 0-8.28 0-12.42.02-.52-.46-1.87 1.16-1.15z" fill="#565656"></path><path d="m18.17 20.15c-1.13 1.36.21 1.49.95 1.79q8.67 3.6 17.37 7.15c3.14 1.29 6.35 2.4 9.4 3.87s5.6.83 8.3-.3c8.36-3.48 16.81-6.8 24.93-10.77.73-.36 1.6-.54.86-1.62.64-.2 1.24-.13 1.39.61s-.5 1.3-1.16 1.6c-2.9 1.32-5.83 2.6-8.74 3.9-1.12.5-2.22 1-3.33 1.56a.81.81 0 0 0 -.78.39c-.43 0-.89-.07-1.18.39a2.15 2.15 0 0 0 -1.57.78l-1.18.39a.81.81 0 0 0 -.78.39 2.27 2.27 0 0 0 -2 .78 10.25 10.25 0 0 0 -3.53 1.57l-6.27 2h-3.48a8.73 8.73 0 0 0 -2.75-1.17 4.5 4.5 0 0 0 -2.35-.79.81.81 0 0 0 -.78-.39c-2.87-1.8-6.22-2.46-9.26-3.88-4.55-2.13-9.25-4-13.88-5.91-.9-.23-1.84-.4-2-1.59.4-.84 1.09-.9 1.82-.75z" fill="#565656"></path><g fill="#555"><path d="m63.45 57.34a24.54 24.54 0 0 1 5.49-3.14c-1.45 1.72-3.04 3.2-5.49 3.14z"></path><path d="m16.38 20.87c.13 1.19 1.07 1.35 2 1.59-.8 1.69-1.58.27-2.18-.13s-1.02-1.14.18-1.46z"></path><path d="m57.17 32.64a10.25 10.25 0 0 1 3.53-1.57 3.11 3.11 0 0 1 -3.53 1.57z"></path><path d="m48.15 34.6h2.75c-1.02 1.09-1.74 1.09-2.75 0z"></path><path d="m44.62 33.42a8.73 8.73 0 0 1 2.75 1.17 2.08 2.08 0 0 1 -2.75-1.17z"></path><path d="m23.44 46.36.38 2c-.51 0-1.07 0-1.13-.7s-.07-1.21.75-1.3z"></path><path d="m34.82 58.13a3.87 3.87 0 0 1 2 .78c-.95.38-1.65.22-2-.78z"></path><path d="m64.62 29.5a2.15 2.15 0 0 1 1.57-.78c-.19.82-.6 1.4-1.57.78z"></path><path d="m23.84 49.89a2.15 2.15 0 0 1 .78 1.57c-.83-.24-1.41-.6-.78-1.57z"></path><path d="m18.74 13 1.18-.39c-.16.86-.53 1.06-1.18.39z"></path><path d="m68.94 54.21a1.19 1.19 0 0 1 1.18-.78c-.04.79-.61.78-1.18.78z"></path><path d="m26.19 53a1.19 1.19 0 0 1 1.18.78c-.57.04-1.14.04-1.18-.78z"></path><path d="m35.21 6.36a.81.81 0 0 1 .79-.36c-.08.47-.17 1-.79.36z"></path><path d="m37.17 5.58a.81.81 0 0 1 .83-.39c-.12.49-.2.98-.83.39z"></path><path d="m62.66 30.28a.81.81 0 0 1 .78-.39c-.07.5-.15.99-.78.39z"></path></g><path d="m73.77 34.15-.5-.4c.18-.25.4-.37.61-.09.12.09-.06.34-.11.49z" fill="#565656"></path><path d="m46.19 41.44a1.11 1.11 0 0 1 -1.09-.44c.48-.14.9-.14 1.09.44z" fill="#555"></path><path d="m41.49 32.24a.81.81 0 0 1 .78.39c-.62.6-.71.11-.78-.39z" fill="#555"></path><path d="m38.74 59.31a.8.8 0 0 1 .79.39c-.62.59-.71.11-.79-.39z" fill="#555"></path><path d="m40.31 59.7a.8.8 0 0 1 .79.39c-.63.59-.71.11-.79-.39z" fill="#555"></path><path d="m56 60.09a.8.8 0 0 1 .79-.39c-.09.5-.17.98-.79.39z" fill="#555"></path><path d="m67.37 28.32a.81.81 0 0 1 .78-.39c-.08.5-.15.99-.78.39z" fill="#555"></path><path d="m53.64 60.1h.79c-.06.28-.06.67-.48.58-.14-.04-.21-.38-.31-.58z" fill="#555"></path><path d="m73.73 83.38-.19-.26.26.18z" fill="#6f6f6f"></path></svg> 